<svg width="80" height="50" xmlns="http://www.w3.org/2000/svg" version="1.1" xml:space="preserve">
 <g>
  <title>Layer 1</title>
  <g id="T">
   <g id="XMLID_161_">
    <polygon id="XMLID_173_" points="38.218929290771484,17.576085567474365 38.218929290771484,30.186084270477295 44.10893630981445,33.587085247039795 44.10893630981445,20.97609281539917 " fill="#EEE5D3"/>
    <polygon id="XMLID_172_" points="71.38707733154297,29.20808744430542 71.38707733154297,41.81909513473511 50.6179084777832,29.828105449676514 50.6179084777832,17.218101024627686 " fill="#EEE5D3"/>
    <path id="XMLID_169_" d="m78.58997,25.05009l-7.203,4.158l-20.769,-11.991l-6.51,3.758l-5.89,-3.4l20.203,-11.665l5.89,3.4l-6.491,3.748l20.77,11.992z" fill="#EEE5D3"/>
    <path id="XMLID_167_" d="m78.58997,26.85709l-7.203,4.158l-20.769,-11.991l-6.51,3.758l-5.89,-3.4l20.203,-11.664l5.89,3.4l-6.491,3.748l20.77,11.991z" fill="#EEE5D3"/>
    <path id="XMLID_162_" d="m78.95897,25.26309l0,0l0,-0.427l-0.37,-0.213l0,0l-13.908,-8.03l0,-7.069l0,0l0,-0.427l-0.37,-0.213l0,0l-5.89,-3.4l-20.203,11.664l0,0l-0.37,0.213l0,0.427l0,0l0,12.611l5.89,3.4l0,0l0.37,0.214l0.37,-0.214l0,0l6.14,-3.545l20.399,11.777l0,0l0.37,0.213l0.37,-0.213l0,0l7.203,-4.158l0,-12.61l-0.001,0zm-20.536,-18.925l5.15,2.973l-6.491,3.748l0.492,0.284l7.108,4.104l0,0l13.168,7.603l-6.463,3.731l-20.399,-11.777l0,0l-0.37,-0.213l-0.37,0.213l0,0l-2.885,1.666l-3.255,1.879l-5.15,-2.974l19.465,-11.237zm-19.834,23.635l0,-11.757l5.15,2.974l0,11.757l-5.15,-2.974zm12.399,-0.358l0,-11.757l20.029,11.564l0,11.757l-20.029,-11.564z" fill="#16110D"/>
   </g>
  </g>
  <g id="A">
   <g id="_x31_1_1_">
    <polygon id="XMLID_236_" points="11.943480491638184,19.139002323150635 11.44047737121582,27.54400110244751 16.433494567871094,24.605997562408447 17.32349395751953,17.80700159072876 14.416489601135254,15.27699899673462 " fill="#16110D"/>
    <path id="XMLID_233_" d="m19.91845,43.58l-1.252,-6.224l-8.26,-4.769l-1.287,4.759l-7.547,-4.357l8.294,-24.687l9.164,5.291l8.399,34.325l-7.511,-4.338zm-2.678,-13.553l-1.095,-5.451c-0.255,-1.218 -0.565,-2.783 -0.93,-4.693c-0.365,-1.911 -0.597,-2.734 -0.713,-3.537c-0.104,0.622 -0.319,1.094 -0.626,2.483c-0.307,1.389 -0.989,4.081 -2.043,8.077l5.407,3.121z" fill="#EEE5D3"/>
    <polygon id="XMLID_232_" points="9.867472648620605,8.302000522613525 20.530494689941406,2.0810018181800842 29.694496154785156,7.372000217437744 19.031494140625,13.593000888824463 " fill="#EEE5D3"/>
    <polygon id="XMLID_231_" points="9.867472648620605,10.075998783111572 20.530494689941406,3.856001377105713 29.694496154785156,9.146997928619385 19.031494140625,15.36699914932251 " fill="#EEE5D3"/>
    <g id="XMLID_228_">
     <polygon id="XMLID_230_" points="11.832480430603027,26.905001163482666 17.858497619628906,30.74499750137329 16.105499267578125,24.389002323150635 " fill="#EEE5D3"/>
     <polygon id="XMLID_229_" points="12.989482879638672,27.534998416900635 17.598495483398438,30.196001529693604 16.425498962402344,25.51300287246704 " fill="#EEE5D3"/>
    </g>
    <g id="XMLID_220_">
     <path id="XMLID_224_" d="m27.83545,48.089l10.663,-6.221l-8.399,-34.324l0,0l-0.098,-0.402l-0.308,-0.177l0,0l-9.164,-5.291l-10.663,6.22l0,0l-0.291,0.17l-0.134,0.399l0,0l-8.294,24.687l7.561,4.366l0,0l0.407,0.235l0.305,-0.168l0,0l4.573,-2.517l4.358,2.516l1.252,6.225l7.52,4.341l0,0l0.308,0.178l0.404,-0.237l0,0zm-7.304,-45.6l8.461,4.885l-9.962,5.811l-8.46,-4.885l9.961,-5.811zm6.36,44.71l-6.659,-3.845l-1.252,-6.225l-4.264,-2.462l0,0l-4.53,-2.615l-1.287,4.758l-6.9,-3.984l8.065,-24.005l8.66,5l6.81,27.83l1.357,5.548z" fill="#16110D"/>
     <path id="XMLID_221_" d="m15.56045,19.816c-0.364,-1.902 -0.53,-2.771 -0.643,-3.56l-0.773,-0.504c-0.102,0.609 -0.309,1.618 -0.614,2.999c-0.302,1.367 -0.988,4.079 -2.04,8.063l-0.069,0.261l6.317,3.647l-1.25,-6.219c-0.251,-1.205 -0.564,-2.782 -0.928,-4.687zm-3.318,6.918c1.029,-3.902 1.676,-6.465 1.978,-7.83c0.09,-0.41 0.172,-0.784 0.244,-1.125c0.111,0.616 0.245,1.337 0.404,2.169c0.365,1.909 0.678,3.49 0.931,4.697l0.942,4.687l-4.499,-2.598z" fill="#16110D"/>
    </g>
   </g>
  </g>
 </g>

</svg>